<mxfile host="app.diagrams.net" agent="Mozilla/5.0 (Windows NT 10.0; Win64; x64) AppleWebKit/537.36 (KHTML, like Gecko) Chrome/129.0.0.0 Safari/537.36" version="24.8.0">
  <diagram name="Page-1" id="2YBvvXClWsGukQMizWep">
    <mxGraphModel dx="1195" dy="622" grid="1" gridSize="10" guides="1" tooltips="1" connect="1" arrows="1" fold="1" page="1" pageScale="1" pageWidth="850" pageHeight="1100" math="0" shadow="0">
      <root>
        <mxCell id="0" />
        <mxCell id="1" parent="0" />
        <mxCell id="aM9ryv3xv72pqoxQDRHE-7" value="CreateAccountInstructor()" style="html=1;verticalAlign=bottom;endArrow=block;edgeStyle=elbowEdgeStyle;elbow=vertical;curved=0;rounded=0;" parent="1" edge="1">
          <mxGeometry relative="1" as="geometry">
            <mxPoint x="89.92857142857144" y="190" as="sourcePoint" />
            <Array as="points">
              <mxPoint x="180" y="190" />
            </Array>
            <mxPoint x="374.5" y="190" as="targetPoint" />
            <mxPoint as="offset" />
          </mxGeometry>
        </mxCell>
        <mxCell id="QT0idfkxXLzTyoDSYEQH-2" value="" style="shape=umlLifeline;perimeter=lifelinePerimeter;whiteSpace=wrap;html=1;container=1;dropTarget=0;collapsible=0;recursiveResize=0;outlineConnect=0;portConstraint=eastwest;newEdgeStyle={&quot;curved&quot;:0,&quot;rounded&quot;:0};participant=umlActor;" parent="1" vertex="1">
          <mxGeometry x="80" y="50" width="20" height="360" as="geometry" />
        </mxCell>
        <mxCell id="QT0idfkxXLzTyoDSYEQH-3" value="&lt;u&gt;:Instructor&lt;/u&gt;" style="text;html=1;align=center;verticalAlign=middle;resizable=0;points=[];autosize=1;strokeColor=none;fillColor=none;" parent="1" vertex="1">
          <mxGeometry x="50" y="20" width="80" height="30" as="geometry" />
        </mxCell>
        <mxCell id="QT0idfkxXLzTyoDSYEQH-4" value="&lt;u&gt;:System&lt;/u&gt;" style="shape=umlLifeline;perimeter=lifelinePerimeter;whiteSpace=wrap;html=1;container=1;dropTarget=0;collapsible=0;recursiveResize=0;outlineConnect=0;portConstraint=eastwest;newEdgeStyle={&quot;curved&quot;:0,&quot;rounded&quot;:0};" parent="1" vertex="1">
          <mxGeometry x="325" y="50" width="100" height="360" as="geometry" />
        </mxCell>
        <mxCell id="QT0idfkxXLzTyoDSYEQH-8" value="-We are assuming that the actor is an Instructor from the start, interacting with the UI/System" style="shape=note;size=20;whiteSpace=wrap;html=1;" parent="1" vertex="1">
          <mxGeometry x="450" y="120" width="170" height="100" as="geometry" />
        </mxCell>
        <mxCell id="QT0idfkxXLzTyoDSYEQH-14" value="registerInstructor(name, phoneNumber, specialty, cities)" style="html=1;verticalAlign=bottom;endArrow=block;edgeStyle=elbowEdgeStyle;elbow=vertical;curved=0;rounded=0;" parent="1" edge="1">
          <mxGeometry relative="1" as="geometry">
            <mxPoint x="90" y="250" as="sourcePoint" />
            <Array as="points">
              <mxPoint x="180" y="250" />
            </Array>
            <mxPoint x="375" y="250" as="targetPoint" />
          </mxGeometry>
        </mxCell>
        <mxCell id="QT0idfkxXLzTyoDSYEQH-15" value="LoginForm(&quot;instructor&quot;)" style="html=1;verticalAlign=bottom;endArrow=block;edgeStyle=elbowEdgeStyle;elbow=vertical;curved=0;rounded=0;" parent="1" edge="1">
          <mxGeometry x="0.0003" relative="1" as="geometry">
            <mxPoint x="89.99857142857144" y="130" as="sourcePoint" />
            <Array as="points">
              <mxPoint x="180.07" y="130" />
            </Array>
            <mxPoint x="374.57" y="130" as="targetPoint" />
            <mxPoint as="offset" />
          </mxGeometry>
        </mxCell>
        <mxCell id="QT0idfkxXLzTyoDSYEQH-16" value="not null i" style="html=1;verticalAlign=bottom;endArrow=block;edgeStyle=elbowEdgeStyle;elbow=vertical;curved=0;rounded=0;dashed=1;" parent="1" edge="1">
          <mxGeometry relative="1" as="geometry">
            <mxPoint x="374.57" y="340" as="sourcePoint" />
            <Array as="points">
              <mxPoint x="180.07" y="340" />
            </Array>
            <mxPoint x="89.99857142857144" y="340" as="targetPoint" />
            <mxPoint as="offset" />
          </mxGeometry>
        </mxCell>
        <mxCell id="QT0idfkxXLzTyoDSYEQH-17" value="new LoginForm(&quot;instructor&quot;)" style="html=1;verticalAlign=bottom;endArrow=block;edgeStyle=elbowEdgeStyle;elbow=vertical;curved=0;rounded=0;dashed=1;" parent="1" edge="1">
          <mxGeometry x="0.0003" relative="1" as="geometry">
            <mxPoint x="374.57" y="160" as="sourcePoint" />
            <Array as="points">
              <mxPoint x="180.07" y="160" />
            </Array>
            <mxPoint x="89.99857142857144" y="160" as="targetPoint" />
            <mxPoint as="offset" />
          </mxGeometry>
        </mxCell>
        <mxCell id="QT0idfkxXLzTyoDSYEQH-18" value="new CreateAccountInstructor" style="html=1;verticalAlign=bottom;endArrow=block;edgeStyle=elbowEdgeStyle;elbow=vertical;curved=0;rounded=0;dashed=1;" parent="1" edge="1">
          <mxGeometry x="0.0003" relative="1" as="geometry">
            <mxPoint x="374.57" y="214.71" as="sourcePoint" />
            <Array as="points">
              <mxPoint x="180.07" y="214.71" />
            </Array>
            <mxPoint x="89.99857142857144" y="214.71" as="targetPoint" />
            <mxPoint as="offset" />
          </mxGeometry>
        </mxCell>
        <mxCell id="QT0idfkxXLzTyoDSYEQH-19" value="new InstructorPage(i)" style="html=1;verticalAlign=bottom;endArrow=block;edgeStyle=elbowEdgeStyle;elbow=vertical;curved=0;rounded=0;dashed=1;" parent="1" edge="1">
          <mxGeometry relative="1" as="geometry">
            <mxPoint x="374.57" y="370" as="sourcePoint" />
            <Array as="points">
              <mxPoint x="180.07" y="370" />
            </Array>
            <mxPoint x="89.99857142857144" y="370" as="targetPoint" />
            <mxPoint as="offset" />
          </mxGeometry>
        </mxCell>
        <mxCell id="wPXZ8VNcLeqiLXzsY5N9-1" value="registerInstructor will return i (a new Instructor). i is null if either the name, phoneNumber, specialty or cities are invalid. If i is not null, the system will add it to the DB, then return a new InstructorPage(i). Otherwise, an error message appears. The user is prompted to retry until a valid name, phoneNumber, specialty and cities are provided.&amp;nbsp;" style="shape=note;size=20;whiteSpace=wrap;html=1;" parent="1" vertex="1">
          <mxGeometry x="450" y="240" width="330" height="140" as="geometry" />
        </mxCell>
        <mxCell id="wPXZ8VNcLeqiLXzsY5N9-2" value="loop" style="shape=umlFrame;whiteSpace=wrap;html=1;pointerEvents=0;" parent="1" vertex="1">
          <mxGeometry x="25" y="230" width="385" height="50" as="geometry" />
        </mxCell>
        <mxCell id="wPXZ8VNcLeqiLXzsY5N9-3" value="[until valid name, phoneNumber, specialty, cities provided]" style="text;html=1;align=center;verticalAlign=middle;resizable=0;points=[];autosize=1;strokeColor=none;fillColor=none;" parent="1" vertex="1">
          <mxGeometry x="70" y="258" width="330" height="30" as="geometry" />
        </mxCell>
        <mxCell id="oGvw950iAu8WIAvhZEcl-2" value="add instructor i to DB" style="html=1;verticalAlign=bottom;endArrow=block;edgeStyle=elbowEdgeStyle;elbow=vertical;curved=0;rounded=0;dashed=1;" edge="1" parent="1">
          <mxGeometry relative="1" as="geometry">
            <mxPoint x="374.57" y="309.58" as="sourcePoint" />
            <Array as="points">
              <mxPoint x="180.07" y="309.58" />
            </Array>
            <mxPoint x="89.99857142857144" y="309.58" as="targetPoint" />
            <mxPoint as="offset" />
          </mxGeometry>
        </mxCell>
      </root>
    </mxGraphModel>
  </diagram>
</mxfile>
